<mxfile host="app.diagrams.net" modified="2022-03-02T08:41:03.605Z" agent="5.0 (Macintosh; Intel Mac OS X 10_15_7) AppleWebKit/537.36 (KHTML, like Gecko) Chrome/98.0.4758.109 Safari/537.36" etag="r-s3Vr8eOOIizcZV9dHA" version="16.6.4" type="github">
  <diagram id="nAt0Vv6a4vuKUXtpA-EL" name="Page-1">
    <mxGraphModel dx="946" dy="534" grid="0" gridSize="10" guides="1" tooltips="1" connect="1" arrows="1" fold="1" page="1" pageScale="1" pageWidth="827" pageHeight="1169" math="0" shadow="0">
      <root>
        <mxCell id="0" />
        <mxCell id="1" parent="0" />
        <mxCell id="2j4M0gfysw9yA7wdLFC9-2" value="" style="rounded=0;whiteSpace=wrap;html=1;" vertex="1" parent="1">
          <mxGeometry x="180" y="110" width="150" height="350" as="geometry" />
        </mxCell>
        <mxCell id="2j4M0gfysw9yA7wdLFC9-5" value="" style="endArrow=none;html=1;rounded=0;exitX=-0.007;exitY=0.84;exitDx=0;exitDy=0;exitPerimeter=0;" edge="1" parent="1" source="2j4M0gfysw9yA7wdLFC9-2">
          <mxGeometry width="50" height="50" relative="1" as="geometry">
            <mxPoint x="180" y="430" as="sourcePoint" />
            <mxPoint x="330" y="404" as="targetPoint" />
          </mxGeometry>
        </mxCell>
        <mxCell id="2j4M0gfysw9yA7wdLFC9-6" value="" style="endArrow=none;html=1;rounded=0;exitX=-0.007;exitY=0.84;exitDx=0;exitDy=0;exitPerimeter=0;" edge="1" parent="1">
          <mxGeometry width="50" height="50" relative="1" as="geometry">
            <mxPoint x="178.95000000000005" y="350" as="sourcePoint" />
            <mxPoint x="330" y="350" as="targetPoint" />
          </mxGeometry>
        </mxCell>
        <mxCell id="2j4M0gfysw9yA7wdLFC9-7" value="" style="endArrow=none;html=1;rounded=0;exitX=-0.007;exitY=0.84;exitDx=0;exitDy=0;exitPerimeter=0;" edge="1" parent="1">
          <mxGeometry width="50" height="50" relative="1" as="geometry">
            <mxPoint x="178.95000000000005" y="290" as="sourcePoint" />
            <mxPoint x="330" y="290" as="targetPoint" />
          </mxGeometry>
        </mxCell>
        <mxCell id="2j4M0gfysw9yA7wdLFC9-8" value="" style="endArrow=none;html=1;rounded=0;exitX=-0.007;exitY=0.84;exitDx=0;exitDy=0;exitPerimeter=0;" edge="1" parent="1">
          <mxGeometry width="50" height="50" relative="1" as="geometry">
            <mxPoint x="180.00000000000006" y="230" as="sourcePoint" />
            <mxPoint x="331.05" y="230" as="targetPoint" />
          </mxGeometry>
        </mxCell>
        <mxCell id="2j4M0gfysw9yA7wdLFC9-9" value="" style="endArrow=none;html=1;rounded=0;exitX=-0.007;exitY=0.84;exitDx=0;exitDy=0;exitPerimeter=0;" edge="1" parent="1">
          <mxGeometry width="50" height="50" relative="1" as="geometry">
            <mxPoint x="178.95000000000005" y="170" as="sourcePoint" />
            <mxPoint x="330" y="170" as="targetPoint" />
          </mxGeometry>
        </mxCell>
        <mxCell id="2j4M0gfysw9yA7wdLFC9-11" value="request = maxmemory" style="text;html=1;strokeColor=none;fillColor=none;align=center;verticalAlign=middle;whiteSpace=wrap;rounded=0;" vertex="1" parent="1">
          <mxGeometry x="30" y="390" width="130" height="30" as="geometry" />
        </mxCell>
        <mxCell id="2j4M0gfysw9yA7wdLFC9-12" value="POD" style="text;html=1;strokeColor=none;fillColor=none;align=center;verticalAlign=middle;whiteSpace=wrap;rounded=0;" vertex="1" parent="1">
          <mxGeometry x="225" y="420" width="60" height="30" as="geometry" />
        </mxCell>
        <mxCell id="2j4M0gfysw9yA7wdLFC9-13" value="POD" style="text;html=1;strokeColor=none;fillColor=none;align=center;verticalAlign=middle;whiteSpace=wrap;rounded=0;" vertex="1" parent="1">
          <mxGeometry x="225" y="360" width="60" height="30" as="geometry" />
        </mxCell>
        <mxCell id="2j4M0gfysw9yA7wdLFC9-14" value="POD" style="text;html=1;strokeColor=none;fillColor=none;align=center;verticalAlign=middle;whiteSpace=wrap;rounded=0;" vertex="1" parent="1">
          <mxGeometry x="225" y="310" width="60" height="30" as="geometry" />
        </mxCell>
        <mxCell id="2j4M0gfysw9yA7wdLFC9-15" value="POD" style="text;html=1;strokeColor=none;fillColor=none;align=center;verticalAlign=middle;whiteSpace=wrap;rounded=0;" vertex="1" parent="1">
          <mxGeometry x="225" y="240" width="60" height="30" as="geometry" />
        </mxCell>
        <mxCell id="2j4M0gfysw9yA7wdLFC9-16" value="POD" style="text;html=1;strokeColor=none;fillColor=none;align=center;verticalAlign=middle;whiteSpace=wrap;rounded=0;" vertex="1" parent="1">
          <mxGeometry x="225" y="190" width="60" height="30" as="geometry" />
        </mxCell>
        <mxCell id="2j4M0gfysw9yA7wdLFC9-17" value="POD" style="text;html=1;strokeColor=none;fillColor=none;align=center;verticalAlign=middle;whiteSpace=wrap;rounded=0;" vertex="1" parent="1">
          <mxGeometry x="225" y="130" width="60" height="30" as="geometry" />
        </mxCell>
        <mxCell id="2j4M0gfysw9yA7wdLFC9-18" value="K8s Node内存" style="text;html=1;strokeColor=none;fillColor=none;align=center;verticalAlign=middle;whiteSpace=wrap;rounded=0;" vertex="1" parent="1">
          <mxGeometry x="210" y="70" width="90" height="30" as="geometry" />
        </mxCell>
        <mxCell id="2j4M0gfysw9yA7wdLFC9-19" value="" style="rounded=0;whiteSpace=wrap;html=1;" vertex="1" parent="1">
          <mxGeometry x="450" y="110" width="150" height="350" as="geometry" />
        </mxCell>
        <mxCell id="2j4M0gfysw9yA7wdLFC9-20" value="" style="endArrow=none;html=1;rounded=0;exitX=-0.007;exitY=0.84;exitDx=0;exitDy=0;exitPerimeter=0;dashed=1;" edge="1" parent="1" source="2j4M0gfysw9yA7wdLFC9-19">
          <mxGeometry width="50" height="50" relative="1" as="geometry">
            <mxPoint x="450" y="430" as="sourcePoint" />
            <mxPoint x="600" y="404" as="targetPoint" />
          </mxGeometry>
        </mxCell>
        <mxCell id="2j4M0gfysw9yA7wdLFC9-21" value="" style="endArrow=none;html=1;rounded=0;exitX=-0.007;exitY=0.84;exitDx=0;exitDy=0;exitPerimeter=0;" edge="1" parent="1">
          <mxGeometry width="50" height="50" relative="1" as="geometry">
            <mxPoint x="448.95000000000005" y="350" as="sourcePoint" />
            <mxPoint x="600" y="350" as="targetPoint" />
          </mxGeometry>
        </mxCell>
        <mxCell id="2j4M0gfysw9yA7wdLFC9-22" value="" style="endArrow=none;html=1;rounded=0;exitX=-0.007;exitY=0.84;exitDx=0;exitDy=0;exitPerimeter=0;" edge="1" parent="1">
          <mxGeometry width="50" height="50" relative="1" as="geometry">
            <mxPoint x="448.95000000000005" y="290" as="sourcePoint" />
            <mxPoint x="600" y="290" as="targetPoint" />
          </mxGeometry>
        </mxCell>
        <mxCell id="2j4M0gfysw9yA7wdLFC9-23" value="" style="endArrow=none;html=1;rounded=0;exitX=-0.007;exitY=0.84;exitDx=0;exitDy=0;exitPerimeter=0;" edge="1" parent="1">
          <mxGeometry width="50" height="50" relative="1" as="geometry">
            <mxPoint x="450" y="230" as="sourcePoint" />
            <mxPoint x="601.05" y="230" as="targetPoint" />
          </mxGeometry>
        </mxCell>
        <mxCell id="2j4M0gfysw9yA7wdLFC9-24" value="" style="endArrow=none;html=1;rounded=0;exitX=-0.007;exitY=0.84;exitDx=0;exitDy=0;exitPerimeter=0;" edge="1" parent="1">
          <mxGeometry width="50" height="50" relative="1" as="geometry">
            <mxPoint x="448.95000000000005" y="170" as="sourcePoint" />
            <mxPoint x="600" y="170" as="targetPoint" />
          </mxGeometry>
        </mxCell>
        <mxCell id="2j4M0gfysw9yA7wdLFC9-32" value="K8s Node内存" style="text;html=1;strokeColor=none;fillColor=none;align=center;verticalAlign=middle;whiteSpace=wrap;rounded=0;" vertex="1" parent="1">
          <mxGeometry x="480" y="70" width="90" height="30" as="geometry" />
        </mxCell>
        <mxCell id="2j4M0gfysw9yA7wdLFC9-34" value="" style="endArrow=none;html=1;rounded=0;exitX=-0.007;exitY=0.84;exitDx=0;exitDy=0;exitPerimeter=0;" edge="1" parent="1">
          <mxGeometry width="50" height="50" relative="1" as="geometry">
            <mxPoint x="448.95000000000005" y="430" as="sourcePoint" />
            <mxPoint x="600" y="430" as="targetPoint" />
          </mxGeometry>
        </mxCell>
        <mxCell id="2j4M0gfysw9yA7wdLFC9-35" value="maxmemory" style="text;html=1;strokeColor=none;fillColor=none;align=center;verticalAlign=middle;whiteSpace=wrap;rounded=0;" vertex="1" parent="1">
          <mxGeometry x="610" y="390" width="60" height="30" as="geometry" />
        </mxCell>
        <mxCell id="2j4M0gfysw9yA7wdLFC9-36" value="request" style="text;html=1;strokeColor=none;fillColor=none;align=center;verticalAlign=middle;whiteSpace=wrap;rounded=0;" vertex="1" parent="1">
          <mxGeometry x="390" y="410" width="60" height="30" as="geometry" />
        </mxCell>
        <mxCell id="2j4M0gfysw9yA7wdLFC9-37" value="" style="endArrow=none;html=1;rounded=0;exitX=-0.007;exitY=0.84;exitDx=0;exitDy=0;exitPerimeter=0;" edge="1" parent="1">
          <mxGeometry width="50" height="50" relative="1" as="geometry">
            <mxPoint x="450" y="400" as="sourcePoint" />
            <mxPoint x="601.05" y="400" as="targetPoint" />
          </mxGeometry>
        </mxCell>
        <mxCell id="2j4M0gfysw9yA7wdLFC9-38" value="POD" style="text;html=1;strokeColor=none;fillColor=none;align=center;verticalAlign=middle;whiteSpace=wrap;rounded=0;" vertex="1" parent="1">
          <mxGeometry x="507.5" y="410" width="35" height="20" as="geometry" />
        </mxCell>
        <mxCell id="2j4M0gfysw9yA7wdLFC9-40" value="" style="endArrow=none;html=1;rounded=0;exitX=-0.007;exitY=0.84;exitDx=0;exitDy=0;exitPerimeter=0;" edge="1" parent="1">
          <mxGeometry width="50" height="50" relative="1" as="geometry">
            <mxPoint x="450" y="374.5" as="sourcePoint" />
            <mxPoint x="601.05" y="374.5" as="targetPoint" />
          </mxGeometry>
        </mxCell>
        <mxCell id="2j4M0gfysw9yA7wdLFC9-41" value="" style="endArrow=none;html=1;rounded=0;exitX=-0.007;exitY=0.84;exitDx=0;exitDy=0;exitPerimeter=0;" edge="1" parent="1">
          <mxGeometry width="50" height="50" relative="1" as="geometry">
            <mxPoint x="448.95000000000005" y="320" as="sourcePoint" />
            <mxPoint x="600" y="320" as="targetPoint" />
          </mxGeometry>
        </mxCell>
        <mxCell id="2j4M0gfysw9yA7wdLFC9-42" value="" style="endArrow=none;html=1;rounded=0;exitX=-0.007;exitY=0.84;exitDx=0;exitDy=0;exitPerimeter=0;" edge="1" parent="1">
          <mxGeometry width="50" height="50" relative="1" as="geometry">
            <mxPoint x="450" y="260" as="sourcePoint" />
            <mxPoint x="601.05" y="260" as="targetPoint" />
          </mxGeometry>
        </mxCell>
        <mxCell id="2j4M0gfysw9yA7wdLFC9-43" value="" style="endArrow=none;html=1;rounded=0;exitX=-0.007;exitY=0.84;exitDx=0;exitDy=0;exitPerimeter=0;" edge="1" parent="1">
          <mxGeometry width="50" height="50" relative="1" as="geometry">
            <mxPoint x="448.95000000000005" y="200" as="sourcePoint" />
            <mxPoint x="600" y="200" as="targetPoint" />
          </mxGeometry>
        </mxCell>
        <mxCell id="2j4M0gfysw9yA7wdLFC9-44" value="" style="endArrow=none;html=1;rounded=0;exitX=-0.007;exitY=0.84;exitDx=0;exitDy=0;exitPerimeter=0;" edge="1" parent="1">
          <mxGeometry width="50" height="50" relative="1" as="geometry">
            <mxPoint x="448.95000000000005" y="140" as="sourcePoint" />
            <mxPoint x="600" y="140" as="targetPoint" />
          </mxGeometry>
        </mxCell>
        <mxCell id="2j4M0gfysw9yA7wdLFC9-45" value="POD" style="text;html=1;strokeColor=none;fillColor=none;align=center;verticalAlign=middle;whiteSpace=wrap;rounded=0;" vertex="1" parent="1">
          <mxGeometry x="507.5" y="440" width="35" height="20" as="geometry" />
        </mxCell>
        <mxCell id="2j4M0gfysw9yA7wdLFC9-46" value="POD" style="text;html=1;strokeColor=none;fillColor=none;align=center;verticalAlign=middle;whiteSpace=wrap;rounded=0;" vertex="1" parent="1">
          <mxGeometry x="507.5" y="380" width="35" height="20" as="geometry" />
        </mxCell>
        <mxCell id="2j4M0gfysw9yA7wdLFC9-49" value="POD" style="text;html=1;strokeColor=none;fillColor=none;align=center;verticalAlign=middle;whiteSpace=wrap;rounded=0;" vertex="1" parent="1">
          <mxGeometry x="507.5" y="350" width="35" height="20" as="geometry" />
        </mxCell>
        <mxCell id="2j4M0gfysw9yA7wdLFC9-50" value="POD" style="text;html=1;strokeColor=none;fillColor=none;align=center;verticalAlign=middle;whiteSpace=wrap;rounded=0;" vertex="1" parent="1">
          <mxGeometry x="507.5" y="330" width="35" height="20" as="geometry" />
        </mxCell>
        <mxCell id="2j4M0gfysw9yA7wdLFC9-53" value="POD" style="text;html=1;strokeColor=none;fillColor=none;align=center;verticalAlign=middle;whiteSpace=wrap;rounded=0;" vertex="1" parent="1">
          <mxGeometry x="507.5" y="300" width="35" height="20" as="geometry" />
        </mxCell>
        <mxCell id="2j4M0gfysw9yA7wdLFC9-54" value="POD" style="text;html=1;strokeColor=none;fillColor=none;align=center;verticalAlign=middle;whiteSpace=wrap;rounded=0;" vertex="1" parent="1">
          <mxGeometry x="507.5" y="270" width="35" height="20" as="geometry" />
        </mxCell>
        <mxCell id="2j4M0gfysw9yA7wdLFC9-55" value="POD" style="text;html=1;strokeColor=none;fillColor=none;align=center;verticalAlign=middle;whiteSpace=wrap;rounded=0;" vertex="1" parent="1">
          <mxGeometry x="507.5" y="240" width="35" height="20" as="geometry" />
        </mxCell>
        <mxCell id="2j4M0gfysw9yA7wdLFC9-56" value="POD" style="text;html=1;strokeColor=none;fillColor=none;align=center;verticalAlign=middle;whiteSpace=wrap;rounded=0;" vertex="1" parent="1">
          <mxGeometry x="507.5" y="210" width="35" height="20" as="geometry" />
        </mxCell>
        <mxCell id="2j4M0gfysw9yA7wdLFC9-57" value="POD" style="text;html=1;strokeColor=none;fillColor=none;align=center;verticalAlign=middle;whiteSpace=wrap;rounded=0;" vertex="1" parent="1">
          <mxGeometry x="507.5" y="180" width="35" height="20" as="geometry" />
        </mxCell>
        <mxCell id="2j4M0gfysw9yA7wdLFC9-58" value="POD" style="text;html=1;strokeColor=none;fillColor=none;align=center;verticalAlign=middle;whiteSpace=wrap;rounded=0;" vertex="1" parent="1">
          <mxGeometry x="507.5" y="150" width="35" height="20" as="geometry" />
        </mxCell>
        <mxCell id="2j4M0gfysw9yA7wdLFC9-59" value="POD" style="text;html=1;strokeColor=none;fillColor=none;align=center;verticalAlign=middle;whiteSpace=wrap;rounded=0;" vertex="1" parent="1">
          <mxGeometry x="507.5" y="120" width="35" height="20" as="geometry" />
        </mxCell>
        <mxCell id="2j4M0gfysw9yA7wdLFC9-60" value="超售前" style="text;html=1;strokeColor=none;fillColor=none;align=center;verticalAlign=middle;whiteSpace=wrap;rounded=0;" vertex="1" parent="1">
          <mxGeometry x="50" y="360" width="60" height="30" as="geometry" />
        </mxCell>
        <mxCell id="2j4M0gfysw9yA7wdLFC9-61" value="超售后" style="text;html=1;strokeColor=none;fillColor=none;align=center;verticalAlign=middle;whiteSpace=wrap;rounded=0;" vertex="1" parent="1">
          <mxGeometry x="580" y="360" width="120" height="30" as="geometry" />
        </mxCell>
        <mxCell id="2j4M0gfysw9yA7wdLFC9-62" value="&lt;font color=&quot;#ff0000&quot;&gt;超售前，整机资源只够创建少量的pod，且pod实际使用的内存很少，多数内存闲置&lt;br&gt;超售后，能创建的pod数量变多，闲置的资源得到利用&lt;/font&gt;" style="text;html=1;strokeColor=none;fillColor=none;align=left;verticalAlign=middle;whiteSpace=wrap;rounded=0;" vertex="1" parent="1">
          <mxGeometry x="235" y="490" width="465" height="30" as="geometry" />
        </mxCell>
      </root>
    </mxGraphModel>
  </diagram>
</mxfile>
